<svg width="33" height="33" viewBox="0 0 33 33" fill="none" xmlns="http://www.w3.org/2000/svg">
<path d="M27.6851 4.74804C25.4163 2.48024 22.5261 0.936133 19.3798 0.310983C16.2335 -0.314167 12.9726 0.00771364 10.0092 1.23592C7.04586 2.46413 4.51325 4.54351 2.73163 7.2111C0.950013 9.8787 -0.000600519 13.0147 2.84613e-07 16.2226C-2.60236e-07 20.525 1.70853 24.6514 4.74995 27.6944C7.79138 30.7375 11.9167 32.4481 16.219 32.4503C18.348 32.4504 20.4564 32.0342 22.4257 31.2253C24.3883 30.3963 26.1737 29.1986 27.6851 27.6971C29.1921 26.1904 30.3875 24.4015 31.2031 22.4327C32.0186 20.4639 32.4384 18.3537 32.4384 16.2226C32.4384 14.0915 32.0186 11.9813 31.2031 10.0125C30.3875 8.04368 29.1921 6.2548 27.6851 4.74804ZM26.5417 26.5374C24.2062 28.8832 21.1416 30.3637 17.8524 30.7352V20.0202H20.9231C21.3562 20.0202 21.7717 19.8481 22.078 19.5418C22.3843 19.2355 22.5564 18.82 22.5564 18.3868C22.5564 17.9536 22.3843 17.5382 22.078 17.2318C21.7717 16.9255 21.3562 16.7534 20.9231 16.7534H17.8524V12.278C17.8524 11.8448 18.0245 11.4293 18.3308 11.123C18.6371 10.8167 19.0525 10.6446 19.4857 10.6446H21.4457C21.8789 10.6446 22.2944 10.4725 22.6007 10.1662C22.907 9.85984 23.0791 9.44438 23.0791 9.01118C23.0791 8.57798 22.907 8.16252 22.6007 7.8562C22.2944 7.54988 21.8789 7.37779 21.4457 7.37779H18.6691C17.5861 7.37779 16.5475 7.80801 15.7817 8.57381C15.0159 9.33961 14.5857 10.3783 14.5857 11.4613V16.7534H11.5314C11.0982 16.7534 10.6827 16.9255 10.3764 17.2318C10.0701 17.5382 9.89803 17.9536 9.89803 18.3868C9.89803 18.82 10.0701 19.2355 10.3764 19.5418C10.6827 19.8481 11.0982 20.0202 11.5314 20.0202H14.5857V30.7352C11.5524 30.3892 8.70451 29.0988 6.44425 27.0465C4.18399 24.9942 2.62561 22.2836 1.98924 19.2976C1.35287 16.3116 1.67067 13.2011 2.89776 10.4055C4.12484 7.60994 6.19918 5.27053 8.82778 3.71773C11.4564 2.16493 14.5064 1.47724 17.547 1.75178C20.5876 2.02632 23.4651 3.24923 25.773 5.24776C28.081 7.2463 29.7028 9.91944 30.4093 12.8896C31.1158 15.8598 30.8713 18.9769 29.7104 21.8006C28.9696 23.5692 27.8936 25.1777 26.5417 26.5374Z" fill="#2F0000"/>
</svg>
