<svg width="31" height="30" viewBox="0 0 31 30" fill="none" xmlns="http://www.w3.org/2000/svg">
<path d="M15.467 10.8696C14.3001 10.8696 13.1809 11.3331 12.3557 12.1583C11.5306 12.9835 11.067 14.1027 11.067 15.2697C11.067 16.4367 11.5306 17.5559 12.3557 18.3811C13.1809 19.2063 14.3001 19.6698 15.467 19.6698C16.634 19.6698 17.7531 19.2063 18.5783 18.3811C19.4034 17.5559 19.867 16.4367 19.867 15.2697C19.867 14.1027 19.4034 12.9835 18.5783 12.1583C17.7531 11.3331 16.634 10.8696 15.467 10.8696ZM15.467 7.93612C17.4119 7.93612 19.2772 8.70876 20.6525 10.0841C22.0277 11.4594 22.8004 13.3247 22.8004 15.2697C22.8004 17.2147 22.0277 19.08 20.6525 20.4553C19.2772 21.8306 17.4119 22.6033 15.467 22.6033C13.5221 22.6033 11.6568 21.8306 10.2815 20.4553C8.90627 19.08 8.13365 17.2147 8.13365 15.2697C8.13365 13.3247 8.90627 11.4594 10.2815 10.0841C11.6568 8.70876 13.5221 7.93612 15.467 7.93612ZM25.0004 7.56944C25.0004 8.05569 24.8072 8.52202 24.4634 8.86585C24.1196 9.20967 23.6533 9.40283 23.167 9.40283C22.6808 9.40283 22.2145 9.20967 21.8707 8.86585C21.5268 8.52202 21.3337 8.05569 21.3337 7.56944C21.3337 7.08319 21.5268 6.61686 21.8707 6.27303C22.2145 5.92921 22.6808 5.73604 23.167 5.73604C23.6533 5.73604 24.1196 5.92921 24.4634 6.27303C24.8072 6.61686 25.0004 7.08319 25.0004 7.56944ZM15.467 3.53597C11.8385 3.53597 11.2459 3.54624 9.55779 3.62104C8.40792 3.67531 7.63645 3.82931 6.92071 4.10799C6.32207 4.32854 5.7807 4.68094 5.33671 5.13909C4.87804 5.58295 4.52514 6.12434 4.30417 6.72314C4.0255 7.44184 3.8715 8.21186 3.8187 9.3603C3.74244 10.9796 3.73217 11.5457 3.73217 15.2697C3.73217 18.8998 3.74244 19.4909 3.81724 21.1791C3.8715 22.3275 4.0255 23.1005 4.30271 23.8148C4.55204 24.4528 4.84537 24.9119 5.33231 25.3988C5.82658 25.8917 6.28565 26.1865 6.91631 26.4299C7.64085 26.7101 8.41232 26.8656 9.55632 26.9184C11.1755 26.9946 11.7417 27.0034 15.4655 27.0034C19.0956 27.0034 19.6866 26.9932 21.3748 26.9184C22.5217 26.8641 23.2932 26.7101 24.0104 26.4329C24.609 26.2123 25.1504 25.8599 25.5944 25.4018C26.0886 24.909 26.3834 24.4499 26.6269 23.8177C26.9056 23.0961 27.061 22.3246 27.1138 21.1776C27.1901 19.5598 27.1989 18.9922 27.1989 15.2697C27.1989 11.641 27.1886 11.0485 27.1138 9.3603C27.0596 8.21333 26.9041 7.4389 26.6269 6.72314C26.4064 6.12448 26.054 5.5831 25.5958 5.13909C25.152 4.68041 24.6106 4.3275 24.0118 4.10652C23.2932 3.82785 22.5217 3.67384 21.3748 3.62104C19.757 3.54477 19.1909 3.53597 15.4655 3.53597M15.4655 0.602539C19.4505 0.602539 19.9477 0.617206 21.5126 0.690542C23.0732 0.763878 24.138 1.00882 25.0722 1.37257C26.0402 1.74511 26.8557 2.24966 27.6712 3.06369C28.4173 3.79665 28.9944 4.68364 29.3623 5.66271C29.7245 6.59701 29.9709 7.66184 30.0443 9.2239C30.1132 10.7874 30.1323 11.2846 30.1323 15.2697C30.1323 19.2548 30.1176 19.752 30.0443 21.3155C29.9709 22.879 29.7245 23.9409 29.3623 24.8767C28.9944 25.8558 28.4173 26.7427 27.6712 27.4757C26.9382 28.2218 26.0513 28.799 25.0722 29.1668C24.138 29.5291 23.0732 29.7755 21.5126 29.8489C19.9477 29.9178 19.4505 29.9369 15.4655 29.9369C11.4806 29.9369 10.9834 29.9222 9.41846 29.8489C7.85792 29.7755 6.79458 29.5291 5.85884 29.1668C4.8798 28.799 3.99285 28.2218 3.2599 27.4757C2.51382 26.7427 1.9367 25.8558 1.56883 24.8767C1.2051 23.9424 0.960162 22.8776 0.886828 21.3155C0.816428 19.752 0.798828 19.2548 0.798828 15.2697C0.798828 11.2846 0.813495 10.7874 0.886828 9.2239C0.960162 7.66038 1.2051 6.59847 1.56883 5.66271C1.9367 4.68364 2.51382 3.79665 3.2599 3.06369C3.99285 2.31758 4.8798 1.74044 5.85884 1.37257C6.79311 1.00882 7.85645 0.763878 9.41846 0.690542C10.9849 0.621606 11.4821 0.602539 15.467 0.602539" fill="#2F0000"/>
</svg>
