<svg width="53" height="50" viewBox="0 0 53 50" fill="none" xmlns="http://www.w3.org/2000/svg">
<g filter="url(#filter0_d_188_720)">
<path d="M26.5 42L23.2375 38.9787C11.65 28.2899 4 21.2174 4 12.5886C4 5.51608 9.445 0 16.375 0C20.29 0 24.0475 1.85395 26.5 4.76076C28.9525 1.85395 32.71 0 36.625 0C43.555 0 49 5.51608 49 12.5886C49 21.2174 41.35 28.2899 29.7625 38.9787L26.5 42Z" fill="white"/>
<path d="M24.2567 37.8782L24.2545 37.8762C18.4317 32.5049 13.7181 28.148 10.4427 24.0716C7.18458 20.0167 5.5 16.4182 5.5 12.5886C5.5 6.32201 10.2957 1.5 16.375 1.5C19.8269 1.5 23.1722 3.14256 25.3535 5.72804L26.5 7.08688L27.6465 5.72804C29.8278 3.14256 33.1731 1.5 36.625 1.5C42.7043 1.5 47.5 6.32201 47.5 12.5886C47.5 16.4182 45.8154 20.0167 42.5573 24.0716C39.2819 28.148 34.5683 32.5049 28.7455 37.8762L28.7433 37.8782L26.5 39.9556L24.2567 37.8782Z" stroke="white" stroke-width="3"/>
</g>
<defs>
<filter id="filter0_d_188_720" x="0" y="0" width="53" height="50" filterUnits="userSpaceOnUse" color-interpolation-filters="sRGB">
<feFlood flood-opacity="0" result="BackgroundImageFix"/>
<feColorMatrix in="SourceAlpha" type="matrix" values="0 0 0 0 0 0 0 0 0 0 0 0 0 0 0 0 0 0 127 0" result="hardAlpha"/>
<feOffset dy="4"/>
<feGaussianBlur stdDeviation="2"/>
<feComposite in2="hardAlpha" operator="out"/>
<feColorMatrix type="matrix" values="0 0 0 0 0 0 0 0 0 0 0 0 0 0 0 0 0 0 0.25 0"/>
<feBlend mode="normal" in2="BackgroundImageFix" result="effect1_dropShadow_188_720"/>
<feBlend mode="normal" in="SourceGraphic" in2="effect1_dropShadow_188_720" result="shape"/>
</filter>
</defs>
</svg>
