<svg width="23" height="16" viewBox="0 0 23 16" fill="none" xmlns="http://www.w3.org/2000/svg">
<mask id="path-1-inside-1_882_2" fill="white">
<path fill-rule="evenodd" clip-rule="evenodd" d="M22.234 0H0.768575C0.565254 0 0.370261 0.070238 0.226492 0.195262C0.0827221 0.320287 0.00195312 0.489856 0.00195312 0.666667V15.3333C0.00195312 15.5101 0.0827221 15.6797 0.226492 15.8047C0.370261 15.9298 0.565254 16 0.768575 16H22.234C22.4373 16 22.6323 15.9298 22.7761 15.8047C22.9198 15.6797 23.0006 15.5101 23.0006 15.3333V0.666667C23.0006 0.489856 22.9198 0.320287 22.7761 0.195262C22.6323 0.070238 22.4373 0 22.234 0ZM1.5352 14.6667V1.33333H21.4674V14.6667H1.5352Z"/>
</mask>
<path fill-rule="evenodd" clip-rule="evenodd" d="M22.234 0H0.768575C0.565254 0 0.370261 0.070238 0.226492 0.195262C0.0827221 0.320287 0.00195312 0.489856 0.00195312 0.666667V15.3333C0.00195312 15.5101 0.0827221 15.6797 0.226492 15.8047C0.370261 15.9298 0.565254 16 0.768575 16H22.234C22.4373 16 22.6323 15.9298 22.7761 15.8047C22.9198 15.6797 23.0006 15.5101 23.0006 15.3333V0.666667C23.0006 0.489856 22.9198 0.320287 22.7761 0.195262C22.6323 0.070238 22.4373 0 22.234 0ZM1.5352 14.6667V1.33333H21.4674V14.6667H1.5352Z" fill="#2F0000"/>
<path d="M22.234 0V5V0ZM0.768575 0V5V0ZM1.5352 14.6667H-3.4648V19.6667H1.5352V14.6667ZM1.5352 1.33333V-3.66667H-3.4648V1.33333H1.5352ZM21.4674 1.33333H26.4674V-3.66667H21.4674V1.33333ZM21.4674 14.6667V19.6667H26.4674V14.6667H21.4674ZM22.234 -5H0.768575V5H22.234V-5ZM0.768575 -5C-0.552736 -5 -1.93664 -4.54979 -3.05451 -3.57767L3.50749 3.9682C2.67716 4.69026 1.68324 5 0.768575 5V-5ZM-3.05451 -3.57767C-4.19449 -2.58633 -4.99805 -1.07959 -4.99805 0.666667H5.00195C5.00195 2.0593 4.35993 3.2269 3.50749 3.9682L-3.05451 -3.57767ZM-4.99805 0.666667V15.3333H5.00195V0.666667H-4.99805ZM-4.99805 15.3333C-4.99805 17.0796 -4.19449 18.5863 -3.05451 19.5777L3.50749 12.0318C4.35993 12.7731 5.00195 13.9407 5.00195 15.3333H-4.99805ZM-3.05451 19.5777C-1.93663 20.5498 -0.552725 21 0.768575 21V11C1.68323 11 2.67716 11.3097 3.50749 12.0318L-3.05451 19.5777ZM0.768575 21H22.234V11H0.768575V21ZM22.234 21C23.5553 21 24.9392 20.5498 26.0571 19.5777L19.4951 12.0318C20.3254 11.3097 21.3193 11 22.234 11V21ZM26.0571 19.5777C27.1971 18.5863 28.0006 17.0796 28.0006 15.3333H18.0006C18.0006 13.9407 18.6426 12.7731 19.4951 12.0318L26.0571 19.5777ZM28.0006 15.3333V0.666667H18.0006V15.3333H28.0006ZM28.0006 0.666667C28.0006 -1.07957 27.1971 -2.58632 26.0571 -3.57767L19.4951 3.9682C18.6426 3.22689 18.0006 2.05929 18.0006 0.666667H28.0006ZM26.0571 -3.57767C24.9392 -4.54979 23.5553 -5 22.234 -5V5C21.3193 5 20.3254 4.69027 19.4951 3.9682L26.0571 -3.57767ZM6.5352 14.6667V1.33333H-3.4648V14.6667H6.5352ZM1.5352 6.33333H21.4674V-3.66667H1.5352V6.33333ZM16.4674 1.33333V14.6667H26.4674V1.33333H16.4674ZM21.4674 9.66667H1.5352V19.6667H21.4674V9.66667Z" fill="#2F0000" mask="url(#path-1-inside-1_882_2)"/>
<mask id="path-3-inside-2_882_2" fill="white">
<path fill-rule="evenodd" clip-rule="evenodd" d="M22.7301 1.17333L11.9284 9.17333C11.7894 9.27643 11.6126 9.33296 11.4299 9.33271C11.2471 9.33247 11.0705 9.27547 10.9318 9.172L0.266591 1.172C0.147867 1.08316 0.0632832 0.964827 0.0242223 0.832924C-0.0148386 0.701022 -0.00650252 0.56188 0.0481087 0.434221C0.10272 0.306562 0.200986 0.196513 0.329683 0.118882C0.458381 0.041251 0.611334 -0.000236964 0.767962 1.01812e-06H22.2334C22.39 0.000262593 22.5427 0.0422173 22.6711 0.120222C22.7994 0.198228 22.8972 0.308542 22.9513 0.436328C23.0054 0.564114 23.0132 0.703244 22.9737 0.835003C22.9341 0.966763 22.8492 1.08483 22.7301 1.17333ZM20.1512 1.33333H2.83017L11.4347 7.788L20.1512 1.33333Z"/>
</mask>
<path fill-rule="evenodd" clip-rule="evenodd" d="M22.7301 1.17333L11.9284 9.17333C11.7894 9.27643 11.6126 9.33296 11.4299 9.33271C11.2471 9.33247 11.0705 9.27547 10.9318 9.172L0.266591 1.172C0.147867 1.08316 0.0632832 0.964827 0.0242223 0.832924C-0.0148386 0.701022 -0.00650252 0.56188 0.0481087 0.434221C0.10272 0.306562 0.200986 0.196513 0.329683 0.118882C0.458381 0.041251 0.611334 -0.000236964 0.767962 1.01812e-06H22.2334C22.39 0.000262593 22.5427 0.0422173 22.6711 0.120222C22.7994 0.198228 22.8972 0.308542 22.9513 0.436328C23.0054 0.564114 23.0132 0.703244 22.9737 0.835003C22.9341 0.966763 22.8492 1.08483 22.7301 1.17333ZM20.1512 1.33333H2.83017L11.4347 7.788L20.1512 1.33333Z" fill="#2F0000"/>
<path d="M22.7301 1.17333L25.706 5.19135L25.7138 5.18551L22.7301 1.17333ZM11.9284 9.17333L8.95261 5.15532L8.95033 5.15701L11.9284 9.17333ZM10.9318 9.172L7.93157 13.1718L7.94175 13.1794L10.9318 9.172ZM0.266591 1.172L3.26685 -2.82781L3.26222 -2.83127L0.266591 1.172ZM0.767962 1.01812e-06L0.760365 5H0.767962V1.01812e-06ZM22.2334 1.01812e-06L22.2417 -5H22.2334V1.01812e-06ZM20.1512 1.33333L23.1268 5.35156L35.3051 -3.66667H20.1512V1.33333ZM2.83017 1.33333V-3.66667H-12.1675L-0.170195 5.33306L2.83017 1.33333ZM11.4347 7.788L8.43437 11.7877L11.4154 14.0239L14.4103 11.8062L11.4347 7.788ZM19.7543 -2.84468L8.95261 5.15532L14.9043 13.1913L25.706 5.19134L19.7543 -2.84468ZM8.95033 5.15701C9.7245 4.58296 10.6083 4.33161 11.4365 4.33272L11.4232 14.3327C12.6169 14.3343 13.8543 13.9699 14.9066 13.1897L8.95033 5.15701ZM11.4365 4.33272C12.2648 4.33382 13.1486 4.58757 13.9219 5.16458L7.94175 13.1794C8.99244 13.9634 10.2294 14.3311 11.4232 14.3327L11.4365 4.33272ZM13.9321 5.17219L3.26685 -2.82781L-2.73366 5.17181L7.93158 13.1718L13.9321 5.17219ZM3.26222 -2.83127C3.9343 -2.32836 4.52743 -1.56945 4.81842 -0.586805L-4.76998 2.25265C-4.40086 3.49911 -3.63857 4.49468 -2.72904 5.17527L3.26222 -2.83127ZM4.81842 -0.586805C5.11359 0.409913 5.04413 1.46808 4.64513 2.40079L-4.54891 -1.53234C-5.05714 -0.344325 -5.14326 0.99213 -4.76998 2.25265L4.81842 -0.586805ZM4.64513 2.40079C4.25301 3.3174 3.60299 3.98362 2.91225 4.40028L-2.25288 -4.16251C-3.20101 -3.59059 -4.04757 -2.70427 -4.54891 -1.53234L4.64513 2.40079ZM2.91225 4.40028C2.22558 4.81448 1.47629 5.00108 0.760365 5L0.775559 -4.99999C-0.253624 -5.00156 -1.30882 -4.73198 -2.25288 -4.16251L2.91225 4.40028ZM0.767962 5H22.2334V-5H0.767962V5ZM22.225 4.99999C21.5093 4.9988 20.7602 4.80988 20.0743 4.39301L25.2678 -4.15256C24.3252 -4.72544 23.2707 -4.99827 22.2417 -4.99999L22.225 4.99999ZM20.0743 4.39301C19.3842 3.97365 18.736 3.30452 18.347 2.38573L27.5556 -1.51307C27.0584 -2.68743 26.2146 -3.57719 25.2678 -4.15256L20.0743 4.39301ZM18.347 2.38573C17.9512 1.45091 17.8862 0.392612 18.1847 -0.602122L27.7627 2.27213C28.1403 1.01388 28.0596 -0.322681 27.5556 -1.51307L18.347 2.38573ZM18.1847 -0.602122C18.4789 -1.58275 19.0739 -2.33869 19.7465 -2.83885L25.7138 5.18551C26.6244 4.50835 27.3893 3.51627 27.7627 2.27213L18.1847 -0.602122ZM20.1512 -3.66667H2.83017V6.33333H20.1512V-3.66667ZM-0.170195 5.33306L8.43437 11.7877L14.4351 3.78828L5.83054 -2.66639L-0.170195 5.33306ZM14.4103 11.8062L23.1268 5.35156L17.1757 -2.68489L8.4592 3.76977L14.4103 11.8062Z" fill="#2F0000" mask="url(#path-3-inside-2_882_2)"/>
</svg>
