<svg width="27" height="30" viewBox="0 0 27 30" fill="none" xmlns="http://www.w3.org/2000/svg">
<path d="M21.111 5.00365C19.9953 3.72937 19.3803 2.09318 19.3804 0.399414H14.3355V20.645C14.2974 21.7409 13.8351 22.7791 13.0462 23.5406C12.2573 24.3021 11.2034 24.7274 10.1069 24.7268C7.78856 24.7268 5.86202 22.8328 5.86202 20.4817C5.86202 17.6735 8.57223 15.5673 11.3641 16.4326V11.2732C5.73141 10.5222 0.800781 14.8979 0.800781 20.4817C0.800781 25.9186 5.30692 29.7882 10.0906 29.7882C15.2172 29.7882 19.3804 25.6248 19.3804 20.4817V10.212C21.4261 11.6812 23.8823 12.4694 26.4009 12.4651V7.42006C26.4009 7.42006 23.3315 7.567 21.111 5.00365Z" fill="#2F0000"/>
</svg>
