<svg width="39" height="39" viewBox="0 0 39 39" fill="none" xmlns="http://www.w3.org/2000/svg">
<path d="M19.1314 12.0042L24.7736 17.6464L25.6271 18.5H24.42H9.5V20.5H24.42H25.6271L24.7736 21.3536L19.1311 26.996L20.5731 28.4059L28.7539 20.2264L28.754 20.2264L29.4804 19.5L28.7539 18.7736L28.7539 18.7735L20.5758 10.5939L19.1314 12.0042ZM38.5 19.5C38.5 9.02414 29.9759 0.5 19.5 0.5C9.02414 0.5 0.5 9.02414 0.5 19.5C0.5 29.9759 9.02414 38.5 19.5 38.5C29.9759 38.5 38.5 29.9759 38.5 19.5ZM2.5 19.5C2.5 10.0934 10.0934 2.5 19.5 2.5C28.9066 2.5 36.5 10.0934 36.5 19.5C36.5 28.9066 28.9066 36.5 19.5 36.5C10.0934 36.5 2.5 28.9066 2.5 19.5Z" fill="#2F0000" stroke="#2F0000"/>
</svg>
