<svg width="39" height="39" viewBox="0 0 39 39" fill="none" xmlns="http://www.w3.org/2000/svg">
<path d="M19.8686 12.0042L14.2264 17.6464L13.3729 18.5H14.58H29.5V20.5H14.58H13.3729L14.2264 21.3536L19.8689 26.996L18.4269 28.4059L10.2461 20.2264L10.246 20.2264L9.51961 19.5L10.2461 18.7736L10.2461 18.7735L18.4242 10.5939L19.8686 12.0042ZM0.5 19.5C0.5 9.02414 9.02414 0.5 19.5 0.5C29.9759 0.5 38.5 9.02414 38.5 19.5C38.5 29.9759 29.9759 38.5 19.5 38.5C9.02414 38.5 0.5 29.9759 0.5 19.5ZM36.5 19.5C36.5 10.0934 28.9066 2.5 19.5 2.5C10.0934 2.5 2.5 10.0934 2.5 19.5C2.5 28.9066 10.0934 36.5 19.5 36.5C28.9066 36.5 36.5 28.9066 36.5 19.5Z" fill="#2F0000" stroke="#2F0000"/>
</svg>
