<svg width="32" height="32" viewBox="0 0 32 32" fill="none" xmlns="http://www.w3.org/2000/svg">
<path d="M26.8326 4.55924C25.3961 3.10862 23.6852 1.95843 21.7997 1.17569C19.9142 0.392953 17.8918 -0.00667919 15.8503 8.44385e-05C7.29624 8.44385e-05 0.324553 6.97199 0.324553 15.5263C0.324553 18.268 1.04522 20.9315 2.39256 23.2815L0.199219 31.3345L8.42424 29.1724C10.6959 30.4101 13.2496 31.0681 15.8503 31.0681C24.4043 31.0681 31.376 24.0962 31.376 15.5419C31.376 11.3901 29.7623 7.489 26.8326 4.55924ZM15.8503 28.436C13.5316 28.436 11.2599 27.8094 9.27025 26.6343L8.80025 26.3523L3.91223 27.637L5.21257 22.8742L4.89923 22.3885C3.61072 20.3315 2.92668 17.9536 2.92523 15.5263C2.92523 8.41337 8.72191 2.61651 15.8346 2.61651C19.2813 2.61651 22.5243 3.96388 24.9526 6.40797C26.1552 7.60473 27.1082 9.02837 27.7564 10.5963C28.4045 12.1643 28.7349 13.8453 28.7283 15.5419C28.7596 22.6548 22.963 28.436 15.8503 28.436ZM22.9316 18.785C22.54 18.597 20.6286 17.657 20.2839 17.516C19.9236 17.3907 19.6729 17.328 19.4066 17.704C19.1403 18.0957 18.4039 18.9731 18.1846 19.2237C17.9653 19.4901 17.7303 19.5214 17.3386 19.3177C16.9469 19.1297 15.6936 18.7067 14.2209 17.3907C13.0616 16.3566 12.2939 15.0876 12.0589 14.6959C11.8396 14.3042 12.0276 14.1006 12.2313 13.8969C12.4036 13.7245 12.6229 13.4425 12.8109 13.2232C12.9989 13.0039 13.0773 12.8315 13.2026 12.5808C13.3279 12.3145 13.2653 12.0952 13.1713 11.9072C13.0773 11.7191 12.2939 9.80775 11.9806 9.02439C11.6673 8.27236 11.3383 8.36637 11.1033 8.3507H10.3512C10.0849 8.3507 9.67758 8.4447 9.31725 8.83638C8.97258 9.22806 7.96991 10.1681 7.96991 12.0795C7.96991 13.9909 9.36425 15.8396 9.55225 16.0903C9.74025 16.3566 12.2939 20.2734 16.1793 21.9498C17.1036 22.3572 17.8243 22.5922 18.3883 22.7645C19.3126 23.0622 20.1586 23.0152 20.8323 22.9212C21.5843 22.8115 23.1353 21.9812 23.4486 21.0725C23.7776 20.1638 23.7776 19.3961 23.668 19.2237C23.5583 19.0514 23.3233 18.9731 22.9316 18.785Z" fill="#2F0000"/>
</svg>
