<svg xmlns="http://www.w3.org/2000/svg" xmlns:xlink="http://www.w3.org/1999/xlink" width="500" zoomAndPan="magnify" viewBox="0 0 375 374.999991" height="500" preserveAspectRatio="xMidYMid meet" version="1.0"><defs><clipPath id="fc893e7b45"><path d="M 33.683594 22.613281 L 322 22.613281 L 322 342 L 33.683594 342 Z M 33.683594 22.613281 " clip-rule="nonzero"/></clipPath><clipPath id="37fb3a03cd"><path d="M 274 96 L 323.933594 96 L 323.933594 128 L 274 128 Z M 274 96 " clip-rule="nonzero"/></clipPath></defs><rect x="-37.5" width="450" fill="#ffffff" y="-37.499999" height="449.999989" fill-opacity="1"/><rect x="-37.5" width="450" fill="#ffffff" y="-37.499999" height="449.999989" fill-opacity="1"/><g clip-path="url(#fc893e7b45)"><path fill="#531c01" d="M 101.058594 323.925781 C 100.347656 324.113281 90.390625 317.785156 86.238281 314.550781 C 66.199219 299.324219 47.777344 280.457031 39.101562 256.375 C 24.761719 218.042969 40.355469 171.453125 74.453125 149.015625 C 115.875 122.355469 143.351562 107.113281 135.917969 51.699219 C 135.289062 45.832031 135.207031 39.925781 134.722656 34.046875 C 134.585938 30.539062 134.308594 26.917969 135.261719 23.488281 C 135.636719 22.230469 137.109375 22.796875 137.976562 23.277344 C 152.410156 30.617188 164.097656 42.652344 174.125 55.152344 C 174.46875 55.742188 175.066406 56.015625 175.75 56.050781 C 183.898438 56.078125 192.054688 55.9375 200.207031 55.90625 C 201.929688 55.964844 203.753906 55.808594 204.878906 54.324219 C 216.019531 42.296875 227.917969 29.113281 243.230469 22.613281 C 244.542969 22.605469 244.527344 24.078125 244.539062 25.078125 C 244.535156 27.21875 244.59375 29.371094 244.453125 31.511719 C 243.628906 44.144531 241.832031 56.679688 239.695312 69.148438 C 239.152344 72.980469 238.394531 73.050781 241.207031 75.769531 C 250.839844 85.972656 258.648438 98.128906 261.996094 111.875 C 268.527344 135.640625 258.433594 161.660156 234.183594 169.949219 C 214.589844 177.042969 193.484375 172.410156 173.1875 173.246094 C 129.019531 173.878906 101.503906 214.640625 117.261719 255.769531 C 134.765625 294.832031 179.730469 317.113281 219.632812 326.285156 C 245.273438 331.507812 272.175781 330.597656 297.261719 323.03125 C 305.394531 320.652344 313.277344 317.539062 320.941406 313.917969 C 321.050781 313.871094 321.25 314.035156 321.410156 314.105469 C 264.632812 347.644531 180.539062 351.605469 121.554688 321.472656 C 90.269531 305.804688 64.339844 275.683594 63.347656 239.492188 C 63.039062 236.0625 63 232.640625 63.542969 229.21875 C 63.707031 227.53125 64.839844 221.683594 62.582031 227.015625 C 53.011719 255.132812 63.40625 286.71875 83.386719 307.695312 C 88.390625 313.261719 101.023438 323.296875 101.058594 323.925781 Z M 188.082031 92.84375 C 187.019531 92.882812 186.105469 92.601562 186.320312 93.664062 C 187.390625 95.664062 188.867188 97.382812 190.34375 99.0625 C 194.640625 104.046875 195.96875 104.753906 201.933594 106.632812 C 219.917969 111.757812 236.367188 121.84375 243.558594 139.816406 C 240.082031 111.152344 215.226562 95.308594 188.082031 92.84375 Z M 188.082031 92.84375 " fill-opacity="1" fill-rule="nonzero"/></g><g clip-path="url(#37fb3a03cd)"><path fill="#531c01" d="M 324.085938 96.660156 C 312.019531 111.089844 299.230469 122.554688 280.480469 126.175781 C 279.558594 126.402344 276.257812 126.964844 274.761719 127.085938 C 293.609375 121.683594 310.3125 110.398438 324.085938 96.660156 " fill-opacity="1" fill-rule="nonzero"/></g><path fill="#531c01" d="M 321.980469 118.929688 C 309.71875 129.609375 294.542969 136.398438 278.390625 138.113281 C 278.386719 138.089844 276.652344 138.3125 275.828125 138.144531 C 292.109375 134.773438 308.117188 128.457031 321.980469 118.929688 " fill-opacity="1" fill-rule="nonzero"/><path fill="#531c01" d="M 242.058594 311.941406 C 241.472656 296.46875 275.546875 316.914062 294.886719 306.671875 C 314.226562 296.433594 308.554688 255.285156 316.511719 262.136719 C 341.082031 283.648438 322.808594 312.566406 300.558594 321.078125 C 278.347656 329.585938 242.464844 322.625 242.058594 311.941406 Z M 242.058594 311.941406 " fill-opacity="1" fill-rule="evenodd"/><path fill="#531c01" d="M 302.953125 302.730469 C 300.558594 304.574219 297.871094 306.230469 294.921875 307.632812 C 275.804688 316.804688 255.175781 309.066406 227.25 306.046875 C 205.886719 303.726562 174.09375 311.648438 167.058594 304.207031 C 165.214844 302.253906 168.753906 298.828125 174.203125 295.03125 C 174.5 294.8125 174.832031 294.589844 175.125 294.371094 C 185.476562 287.296875 201.464844 279.042969 201.355469 275.914062 C 200.839844 262.355469 212.738281 250.164062 230.714844 243.421875 C 231.414062 243.164062 232.113281 242.90625 232.8125 242.6875 C 240.550781 240.035156 249.355469 238.339844 258.675781 238.007812 C 296.324219 236.535156 317.910156 251.859375 318.648438 271.605469 C 319.015625 282.25 313.859375 294.371094 302.953125 302.730469 Z M 302.953125 302.730469 " fill-opacity="1" fill-rule="evenodd"/><path fill="#531c01" d="M 150.628906 265.636719 C 155.160156 269.28125 159.835938 272.339844 159.835938 272.339844 L 172.878906 245.300781 C 172.878906 245.300781 164.996094 244.675781 158.214844 246.773438 C 151.476562 248.910156 134.933594 253.039062 150.628906 265.636719 Z M 150.628906 265.636719 " fill-opacity="1" fill-rule="evenodd"/><path fill="#ffffff" d="M 230.714844 243.421875 C 231.414062 243.164062 232.113281 242.90625 232.8125 242.6875 C 238.671875 255.101562 232.667969 272.820312 217.5625 285.085938 C 208.167969 292.675781 197.191406 296.617188 187.429688 296.652344 " fill-opacity="1" fill-rule="evenodd"/><path fill="#531c01" d="M 205.886719 218.960938 C 209.015625 223.898438 213.472656 231.597656 213.472656 231.597656 L 183.5625 240.734375 C 183.5625 240.734375 183.488281 230.933594 186.324219 224.414062 C 189.199219 217.96875 195.089844 202.015625 205.886719 218.960938 Z M 205.886719 218.960938 " fill-opacity="1" fill-rule="evenodd"/><path fill="#531c01" d="M 215.167969 285.160156 C 206.546875 292.160156 196.566406 296.027344 187.390625 296.652344 C 182.675781 296.984375 178.183594 296.433594 174.203125 295.03125 C 170.375 293.667969 167.019531 291.496094 164.367188 288.511719 C 153.648438 276.320312 158.953125 255.0625 176.265625 241.027344 C 185.660156 233.402344 196.675781 229.496094 206.511719 229.460938 C 214.761719 229.425781 222.167969 232.148438 227.066406 237.710938 C 228.613281 239.445312 229.828125 241.394531 230.714844 243.460938 C 236.054688 255.800781 230.015625 273.152344 215.167969 285.160156 Z M 215.167969 285.160156 " fill-opacity="1" fill-rule="evenodd"/><path fill="#ffffff" d="M 206.878906 274.84375 C 208.796875 275.398438 211.816406 276.097656 213.546875 274.917969 C 214.503906 274.292969 214.835938 273.078125 214.875 271.972656 C 214.910156 270.792969 214.691406 269.652344 214.433594 268.507812 C 214.835938 269.613281 215.132812 270.757812 215.167969 271.972656 C 215.242188 276.871094 210.085938 276.320312 206.878906 274.84375 Z M 206.878906 274.84375 " fill-opacity="1" fill-rule="nonzero"/><path fill="#ffffff" d="M 207.175781 279.117188 C 208.90625 279.230469 210.5625 278.785156 211.300781 277.09375 C 211.523438 276.578125 211.667969 276.023438 211.78125 275.472656 C 211.816406 276.0625 211.742188 276.652344 211.558594 277.203125 C 210.96875 279.082031 208.941406 279.746094 207.175781 279.117188 Z M 207.175781 279.117188 " fill-opacity="1" fill-rule="nonzero"/><path fill="#ffffff" d="M 207.210938 274.917969 C 208.058594 278.34375 207.652344 283.503906 202.863281 282.507812 C 201.6875 282.25 200.617188 281.769531 199.621094 281.144531 C 200.691406 281.585938 201.796875 282.027344 202.9375 282.214844 C 204.042969 282.398438 205.257812 282.285156 206.070312 281.476562 C 207.542969 280.003906 207.433594 276.910156 207.210938 274.917969 Z M 207.210938 274.917969 " fill-opacity="1" fill-rule="nonzero"/><path fill="#ffffff" d="M 204.152344 276.246094 C 203.378906 275.289062 203.824219 273.628906 205.148438 272.597656 C 206.476562 271.53125 208.167969 271.457031 208.941406 272.449219 C 209.714844 273.410156 209.753906 275.914062 208.574219 276.871094 C 207.359375 277.828125 204.925781 277.203125 204.152344 276.246094 Z M 204.152344 276.246094 " fill-opacity="1" fill-rule="evenodd"/><path fill="#ffffff" d="M 215.058594 261.582031 C 216.050781 260.183594 217.15625 258.820312 218.226562 257.496094 C 219.882812 255.542969 221.613281 253.515625 223.421875 251.710938 L 223.714844 251.417969 L 224.007812 251.121094 C 224.121094 251.085938 219.515625 256.390625 219.550781 256.390625 C 219.550781 256.351562 215.058594 261.695312 215.058594 261.582031 Z M 215.058594 261.582031 " fill-opacity="1" fill-rule="nonzero"/><path fill="#ffffff" d="M 217.046875 263.351562 C 218.152344 262.46875 219.367188 261.65625 220.546875 260.882812 C 222.316406 259.742188 224.195312 258.601562 226.074219 257.640625 L 226.402344 257.496094 L 226.734375 257.347656 C 226.847656 257.382812 221.910156 260.367188 221.910156 260.367188 C 221.871094 260.367188 217.011719 263.460938 217.046875 263.351562 Z M 217.046875 263.351562 " fill-opacity="1" fill-rule="nonzero"/><path fill="#ffffff" d="M 218.375 265.339844 C 220.066406 264.789062 221.835938 264.347656 223.566406 263.941406 C 225.335938 263.574219 227.105469 263.242188 228.871094 263.058594 C 226.332031 263.648438 220.914062 264.898438 218.375 265.339844 Z M 218.375 265.339844 " fill-opacity="1" fill-rule="nonzero"/><path fill="#ffffff" d="M 193.765625 280.960938 C 192.328125 281.882812 190.820312 282.800781 189.308594 283.613281 C 187.0625 284.867188 184.738281 286.082031 182.382812 287.148438 L 181.976562 287.332031 L 181.570312 287.519531 C 181.460938 287.480469 187.652344 284.238281 187.613281 284.203125 C 187.6875 284.203125 193.839844 280.851562 193.765625 280.960938 Z M 193.765625 280.960938 " fill-opacity="1" fill-rule="nonzero"/><path fill="#ffffff" d="M 195.089844 283.246094 C 194.207031 284.347656 193.25 285.453125 192.292969 286.484375 C 190.855469 288.035156 189.308594 289.582031 187.722656 290.980469 L 187.464844 291.203125 L 187.207031 291.421875 C 187.097656 291.421875 191.148438 287.332031 191.148438 287.296875 C 191.113281 287.332031 195.089844 283.132812 195.089844 283.246094 Z M 195.089844 283.246094 " fill-opacity="1" fill-rule="nonzero"/><path fill="#ffffff" d="M 196.785156 284.976562 C 196.234375 286.671875 195.496094 288.363281 194.796875 289.984375 C 194.058594 291.605469 193.25 293.226562 192.328125 294.773438 C 192.328125 294.773438 192.328125 294.773438 192.292969 294.773438 C 192.292969 294.773438 192.292969 294.773438 192.292969 294.738281 C 193.398438 292.378906 195.609375 287.261719 196.785156 284.976562 Z M 196.785156 284.976562 " fill-opacity="1" fill-rule="nonzero"/><path fill="#ffffff" d="M 206.476562 258.414062 C 209.128906 257.53125 211.59375 255.949219 213.105469 253.589844 C 214.246094 251.859375 214.726562 249.867188 215.019531 247.804688 C 215.167969 249.058594 215.09375 250.3125 214.800781 251.5625 C 214.46875 252.816406 213.878906 253.996094 213.070312 254.988281 C 211.449219 256.980469 209.015625 258.269531 206.476562 258.414062 Z M 206.476562 258.414062 " fill-opacity="1" fill-rule="nonzero"/><path fill="#ffffff" d="M 178.441406 279.746094 C 181.203125 279.707031 184.078125 278.933594 186.214844 277.128906 C 187.796875 275.804688 188.867188 274.070312 189.785156 272.191406 C 189.566406 273.410156 189.125 274.625 188.460938 275.730469 C 187.796875 276.835938 186.875 277.792969 185.808594 278.492188 C 183.636719 279.890625 180.910156 280.371094 178.441406 279.746094 Z M 178.441406 279.746094 " fill-opacity="1" fill-rule="nonzero"/><path fill="#ffffff" d="M 282.65625 283.132812 C 281.660156 279.671875 277.386719 277.753906 274.21875 276.761719 C 266.003906 274.257812 255.136719 274.515625 247.769531 279.265625 C 243.867188 281.769531 241.433594 285.785156 241.140625 290.390625 C 240.917969 293.191406 241.359375 295.660156 242.796875 298.089844 C 245.597656 302.695312 250.644531 305.789062 255.542969 307.742188 C 272.597656 314.558594 298.902344 311.832031 311.867188 297.980469 C 319.824219 289.617188 321.445312 278.125 318.316406 267.257812 C 317.835938 265.488281 317.210938 263.757812 316.546875 262.027344 C 317.613281 264.566406 318.5 267.183594 319.125 269.871094 C 324.210938 292.160156 308.738281 306.820312 287.996094 310.835938 C 275.765625 313.339844 261.179688 312.382812 250.203125 306.046875 C 245.265625 303.136719 240.4375 298.457031 240.328125 292.378906 C 239.886719 277.167969 256.683594 273.1875 268.953125 275.175781 C 273.445312 275.914062 281.292969 278.199219 282.65625 283.132812 Z M 282.65625 283.132812 " fill-opacity="1" fill-rule="nonzero"/></svg>